<mxfile host="Electron" modified="2023-10-27T07:34:42.445Z" agent="Mozilla/5.0 (Windows NT 10.0; Win64; x64) AppleWebKit/537.36 (KHTML, like Gecko) draw.io/21.2.8 Chrome/112.0.5615.165 Electron/24.2.0 Safari/537.36" etag="nOCXxg52WHJbMlXW5yAs" version="21.2.8" type="device">
  <diagram name="第 1 页" id="V5NbhyiUwmZVBlUfpPm0">
    <mxGraphModel dx="875" dy="518" grid="0" gridSize="10" guides="1" tooltips="1" connect="1" arrows="1" fold="1" page="1" pageScale="1" pageWidth="3300" pageHeight="4681" math="0" shadow="0">
      <root>
        <mxCell id="0" />
        <mxCell id="1" parent="0" />
        <mxCell id="ojFGZFhcRH1uIr3pjVfo-1" value="" style="rounded=0;whiteSpace=wrap;html=1;fillColor=#e1d5e7;strokeColor=#9673a6;" vertex="1" parent="1">
          <mxGeometry x="340" y="100" width="120" height="120" as="geometry" />
        </mxCell>
        <mxCell id="ojFGZFhcRH1uIr3pjVfo-8" style="rounded=0;orthogonalLoop=1;jettySize=auto;html=1;entryX=0;entryY=0.5;entryDx=0;entryDy=0;" edge="1" parent="1" source="ojFGZFhcRH1uIr3pjVfo-2" target="ojFGZFhcRH1uIr3pjVfo-6">
          <mxGeometry relative="1" as="geometry" />
        </mxCell>
        <mxCell id="ojFGZFhcRH1uIr3pjVfo-2" value="描述符 &lt;font face=&quot;Comic Sans MS&quot;&gt;x&lt;/font&gt;" style="rounded=0;whiteSpace=wrap;html=1;fillColor=#fff2cc;strokeColor=#d6b656;" vertex="1" parent="1">
          <mxGeometry x="340" y="120" width="120" height="30" as="geometry" />
        </mxCell>
        <mxCell id="ojFGZFhcRH1uIr3pjVfo-9" style="rounded=0;orthogonalLoop=1;jettySize=auto;html=1;entryX=0;entryY=0.5;entryDx=0;entryDy=0;exitX=1;exitY=0.5;exitDx=0;exitDy=0;" edge="1" parent="1" source="ojFGZFhcRH1uIr3pjVfo-3" target="ojFGZFhcRH1uIr3pjVfo-7">
          <mxGeometry relative="1" as="geometry" />
        </mxCell>
        <mxCell id="ojFGZFhcRH1uIr3pjVfo-3" value="描述符 &lt;font face=&quot;Comic Sans MS&quot;&gt;y&lt;/font&gt;" style="rounded=0;whiteSpace=wrap;html=1;fillColor=#fff2cc;strokeColor=#d6b656;" vertex="1" parent="1">
          <mxGeometry x="340" y="170" width="120" height="30" as="geometry" />
        </mxCell>
        <mxCell id="ojFGZFhcRH1uIr3pjVfo-4" value="&lt;font style=&quot;font-size: 10px;&quot;&gt;&lt;b&gt;父进程文件描述符&lt;br&gt;（执行时关闭标志）&lt;/b&gt;&lt;/font&gt;" style="text;html=1;align=center;verticalAlign=middle;resizable=0;points=[];autosize=1;strokeColor=none;fillColor=none;" vertex="1" parent="1">
          <mxGeometry x="345" y="60" width="110" height="40" as="geometry" />
        </mxCell>
        <mxCell id="ojFGZFhcRH1uIr3pjVfo-5" value="" style="rounded=0;whiteSpace=wrap;html=1;fillColor=#d5e8d4;strokeColor=#82b366;" vertex="1" parent="1">
          <mxGeometry x="560" y="100" width="120" height="190" as="geometry" />
        </mxCell>
        <mxCell id="ojFGZFhcRH1uIr3pjVfo-6" value="打开文件表项 &lt;font face=&quot;Comic Sans MS&quot;&gt;m&lt;/font&gt;" style="rounded=0;whiteSpace=wrap;html=1;fillColor=#fff2cc;strokeColor=#d6b656;" vertex="1" parent="1">
          <mxGeometry x="560" y="130" width="120" height="30" as="geometry" />
        </mxCell>
        <mxCell id="ojFGZFhcRH1uIr3pjVfo-7" value="打开文件表项 &lt;font face=&quot;Comic Sans MS&quot;&gt;n&lt;/font&gt;" style="rounded=0;whiteSpace=wrap;html=1;fillColor=#fff2cc;strokeColor=#d6b656;" vertex="1" parent="1">
          <mxGeometry x="560" y="220" width="120" height="30" as="geometry" />
        </mxCell>
        <mxCell id="ojFGZFhcRH1uIr3pjVfo-10" value="&lt;font style=&quot;font-size: 10px;&quot;&gt;&lt;b&gt;打开文件表&lt;br&gt;（文件偏移量，状态标志）&lt;/b&gt;&lt;/font&gt;" style="text;html=1;align=center;verticalAlign=middle;resizable=0;points=[];autosize=1;strokeColor=none;fillColor=none;" vertex="1" parent="1">
          <mxGeometry x="550" y="60" width="140" height="40" as="geometry" />
        </mxCell>
        <mxCell id="ojFGZFhcRH1uIr3pjVfo-11" value="&lt;font style=&quot;font-size: 10px;&quot;&gt;&lt;b&gt;a) 调用 fork() 之前的描述符&lt;br&gt;和打开文件表条目&lt;/b&gt;&lt;/font&gt;" style="text;html=1;align=center;verticalAlign=middle;resizable=0;points=[];autosize=1;strokeColor=none;fillColor=none;" vertex="1" parent="1">
          <mxGeometry x="160" y="130" width="150" height="40" as="geometry" />
        </mxCell>
        <mxCell id="ojFGZFhcRH1uIr3pjVfo-12" value="" style="rounded=0;whiteSpace=wrap;html=1;fillColor=#e1d5e7;strokeColor=#9673a6;" vertex="1" parent="1">
          <mxGeometry x="330" y="390" width="120" height="90" as="geometry" />
        </mxCell>
        <mxCell id="ojFGZFhcRH1uIr3pjVfo-13" style="rounded=0;orthogonalLoop=1;jettySize=auto;html=1;entryX=0;entryY=0.5;entryDx=0;entryDy=0;" edge="1" parent="1" source="ojFGZFhcRH1uIr3pjVfo-14" target="ojFGZFhcRH1uIr3pjVfo-19">
          <mxGeometry relative="1" as="geometry" />
        </mxCell>
        <mxCell id="ojFGZFhcRH1uIr3pjVfo-32" style="edgeStyle=orthogonalEdgeStyle;rounded=0;orthogonalLoop=1;jettySize=auto;html=1;entryX=0;entryY=0.5;entryDx=0;entryDy=0;curved=1;dashed=1;" edge="1" parent="1" source="ojFGZFhcRH1uIr3pjVfo-14" target="ojFGZFhcRH1uIr3pjVfo-27">
          <mxGeometry relative="1" as="geometry">
            <Array as="points">
              <mxPoint x="280" y="415" />
              <mxPoint x="280" y="560" />
            </Array>
          </mxGeometry>
        </mxCell>
        <mxCell id="ojFGZFhcRH1uIr3pjVfo-14" value="描述符 &lt;font face=&quot;Comic Sans MS&quot;&gt;x&lt;/font&gt;" style="rounded=0;whiteSpace=wrap;html=1;fillColor=#fff2cc;strokeColor=#d6b656;" vertex="1" parent="1">
          <mxGeometry x="330" y="400" width="120" height="30" as="geometry" />
        </mxCell>
        <mxCell id="ojFGZFhcRH1uIr3pjVfo-15" style="rounded=0;orthogonalLoop=1;jettySize=auto;html=1;entryX=0;entryY=0.5;entryDx=0;entryDy=0;exitX=1;exitY=0.5;exitDx=0;exitDy=0;" edge="1" parent="1" source="ojFGZFhcRH1uIr3pjVfo-16" target="ojFGZFhcRH1uIr3pjVfo-20">
          <mxGeometry relative="1" as="geometry" />
        </mxCell>
        <mxCell id="ojFGZFhcRH1uIr3pjVfo-33" style="edgeStyle=orthogonalEdgeStyle;rounded=0;orthogonalLoop=1;jettySize=auto;html=1;entryX=0;entryY=0.5;entryDx=0;entryDy=0;curved=1;dashed=1;" edge="1" parent="1" source="ojFGZFhcRH1uIr3pjVfo-16" target="ojFGZFhcRH1uIr3pjVfo-28">
          <mxGeometry relative="1" as="geometry">
            <Array as="points">
              <mxPoint x="250" y="455" />
              <mxPoint x="250" y="600" />
            </Array>
          </mxGeometry>
        </mxCell>
        <mxCell id="ojFGZFhcRH1uIr3pjVfo-16" value="描述符 &lt;font face=&quot;Comic Sans MS&quot;&gt;y&lt;/font&gt;" style="rounded=0;whiteSpace=wrap;html=1;fillColor=#fff2cc;strokeColor=#d6b656;" vertex="1" parent="1">
          <mxGeometry x="330" y="440" width="120" height="30" as="geometry" />
        </mxCell>
        <mxCell id="ojFGZFhcRH1uIr3pjVfo-17" value="&lt;font style=&quot;font-size: 10px;&quot;&gt;&lt;b&gt;父进程文件描述符&lt;br&gt;&lt;/b&gt;&lt;/font&gt;" style="text;html=1;align=center;verticalAlign=middle;resizable=0;points=[];autosize=1;strokeColor=none;fillColor=none;" vertex="1" parent="1">
          <mxGeometry x="340" y="360" width="100" height="30" as="geometry" />
        </mxCell>
        <mxCell id="ojFGZFhcRH1uIr3pjVfo-18" value="" style="rounded=0;whiteSpace=wrap;html=1;fillColor=#d5e8d4;strokeColor=#82b366;" vertex="1" parent="1">
          <mxGeometry x="550" y="390" width="120" height="190" as="geometry" />
        </mxCell>
        <mxCell id="ojFGZFhcRH1uIr3pjVfo-19" value="打开文件表项 &lt;font face=&quot;Comic Sans MS&quot;&gt;m&lt;/font&gt;" style="rounded=0;whiteSpace=wrap;html=1;fillColor=#fff2cc;strokeColor=#d6b656;" vertex="1" parent="1">
          <mxGeometry x="550" y="420" width="120" height="30" as="geometry" />
        </mxCell>
        <mxCell id="ojFGZFhcRH1uIr3pjVfo-20" value="打开文件表项 &lt;font face=&quot;Comic Sans MS&quot;&gt;n&lt;/font&gt;" style="rounded=0;whiteSpace=wrap;html=1;fillColor=#fff2cc;strokeColor=#d6b656;" vertex="1" parent="1">
          <mxGeometry x="550" y="510" width="120" height="30" as="geometry" />
        </mxCell>
        <mxCell id="ojFGZFhcRH1uIr3pjVfo-21" value="&lt;font style=&quot;font-size: 10px;&quot;&gt;&lt;b&gt;打开文件表&lt;br&gt;（文件偏移量，状态标志）&lt;/b&gt;&lt;/font&gt;" style="text;html=1;align=center;verticalAlign=middle;resizable=0;points=[];autosize=1;strokeColor=none;fillColor=none;" vertex="1" parent="1">
          <mxGeometry x="540" y="350" width="140" height="40" as="geometry" />
        </mxCell>
        <mxCell id="ojFGZFhcRH1uIr3pjVfo-26" value="" style="rounded=0;whiteSpace=wrap;html=1;fillColor=#e1d5e7;strokeColor=#9673a6;" vertex="1" parent="1">
          <mxGeometry x="330" y="535" width="120" height="90" as="geometry" />
        </mxCell>
        <mxCell id="ojFGZFhcRH1uIr3pjVfo-30" style="rounded=0;orthogonalLoop=1;jettySize=auto;html=1;entryX=0;entryY=0.75;entryDx=0;entryDy=0;exitX=0.987;exitY=0.643;exitDx=0;exitDy=0;exitPerimeter=0;" edge="1" parent="1" source="ojFGZFhcRH1uIr3pjVfo-27" target="ojFGZFhcRH1uIr3pjVfo-19">
          <mxGeometry relative="1" as="geometry" />
        </mxCell>
        <mxCell id="ojFGZFhcRH1uIr3pjVfo-27" value="描述符 &lt;font face=&quot;Comic Sans MS&quot;&gt;x&lt;/font&gt;" style="rounded=0;whiteSpace=wrap;html=1;fillColor=#fff2cc;strokeColor=#d6b656;" vertex="1" parent="1">
          <mxGeometry x="330" y="545" width="120" height="30" as="geometry" />
        </mxCell>
        <mxCell id="ojFGZFhcRH1uIr3pjVfo-31" style="rounded=0;orthogonalLoop=1;jettySize=auto;html=1;entryX=0;entryY=0.75;entryDx=0;entryDy=0;exitX=1;exitY=0.5;exitDx=0;exitDy=0;" edge="1" parent="1" source="ojFGZFhcRH1uIr3pjVfo-28" target="ojFGZFhcRH1uIr3pjVfo-20">
          <mxGeometry relative="1" as="geometry" />
        </mxCell>
        <mxCell id="ojFGZFhcRH1uIr3pjVfo-28" value="描述符 &lt;font face=&quot;Comic Sans MS&quot;&gt;y&lt;/font&gt;" style="rounded=0;whiteSpace=wrap;html=1;fillColor=#fff2cc;strokeColor=#d6b656;" vertex="1" parent="1">
          <mxGeometry x="330" y="585" width="120" height="30" as="geometry" />
        </mxCell>
        <mxCell id="ojFGZFhcRH1uIr3pjVfo-29" value="&lt;font style=&quot;font-size: 10px;&quot;&gt;&lt;b&gt;子进程文件描述符&lt;br&gt;&lt;/b&gt;&lt;/font&gt;" style="text;html=1;align=center;verticalAlign=middle;resizable=0;points=[];autosize=1;strokeColor=none;fillColor=none;" vertex="1" parent="1">
          <mxGeometry x="340" y="505" width="100" height="30" as="geometry" />
        </mxCell>
        <mxCell id="ojFGZFhcRH1uIr3pjVfo-34" value="&lt;font style=&quot;font-size: 10px;&quot;&gt;&lt;b&gt;子进程所复制的&lt;br&gt;文件描述符&lt;/b&gt;&lt;/font&gt;" style="text;html=1;align=center;verticalAlign=middle;resizable=0;points=[];autosize=1;strokeColor=none;fillColor=none;" vertex="1" parent="1">
          <mxGeometry x="170" y="465" width="90" height="40" as="geometry" />
        </mxCell>
        <mxCell id="ojFGZFhcRH1uIr3pjVfo-35" value="&lt;b style=&quot;border-color: var(--border-color); color: rgb(0, 0, 0); font-family: Helvetica; font-size: 10px; font-style: normal; font-variant-ligatures: normal; font-variant-caps: normal; letter-spacing: normal; orphans: 2; text-align: center; text-indent: 0px; text-transform: none; widows: 2; word-spacing: 0px; -webkit-text-stroke-width: 0px; background-color: rgb(251, 251, 251); text-decoration-thickness: initial; text-decoration-style: initial; text-decoration-color: initial;&quot;&gt;b) 调用 fork() 之后的描述符&lt;br&gt;&lt;/b&gt;" style="text;whiteSpace=wrap;html=1;" vertex="1" parent="1">
          <mxGeometry x="69" y="299" width="160" height="30" as="geometry" />
        </mxCell>
        <mxCell id="ojFGZFhcRH1uIr3pjVfo-36" value="" style="rounded=0;whiteSpace=wrap;html=1;fillColor=#e1d5e7;strokeColor=#9673a6;" vertex="1" parent="1">
          <mxGeometry x="330" y="740" width="120" height="90" as="geometry" />
        </mxCell>
        <mxCell id="ojFGZFhcRH1uIr3pjVfo-37" style="rounded=0;orthogonalLoop=1;jettySize=auto;html=1;entryX=0;entryY=0.5;entryDx=0;entryDy=0;" edge="1" parent="1" source="ojFGZFhcRH1uIr3pjVfo-38" target="ojFGZFhcRH1uIr3pjVfo-43">
          <mxGeometry relative="1" as="geometry" />
        </mxCell>
        <mxCell id="ojFGZFhcRH1uIr3pjVfo-38" value="描述符 &lt;font face=&quot;Comic Sans MS&quot;&gt;x&lt;/font&gt;" style="rounded=0;whiteSpace=wrap;html=1;fillColor=#fff2cc;strokeColor=#d6b656;" vertex="1" parent="1">
          <mxGeometry x="330" y="750" width="120" height="30" as="geometry" />
        </mxCell>
        <mxCell id="ojFGZFhcRH1uIr3pjVfo-40" value="描述符 &lt;font face=&quot;Comic Sans MS&quot;&gt;y&lt;/font&gt;" style="rounded=0;whiteSpace=wrap;html=1;fillColor=#fff2cc;strokeColor=#d6b656;" vertex="1" parent="1">
          <mxGeometry x="330" y="790" width="120" height="30" as="geometry" />
        </mxCell>
        <mxCell id="ojFGZFhcRH1uIr3pjVfo-41" value="&lt;font style=&quot;font-size: 10px;&quot;&gt;&lt;b&gt;父进程文件描述符&lt;br&gt;&lt;/b&gt;&lt;/font&gt;" style="text;html=1;align=center;verticalAlign=middle;resizable=0;points=[];autosize=1;strokeColor=none;fillColor=none;" vertex="1" parent="1">
          <mxGeometry x="340" y="710" width="100" height="30" as="geometry" />
        </mxCell>
        <mxCell id="ojFGZFhcRH1uIr3pjVfo-42" value="" style="rounded=0;whiteSpace=wrap;html=1;fillColor=#d5e8d4;strokeColor=#82b366;" vertex="1" parent="1">
          <mxGeometry x="550" y="740" width="120" height="190" as="geometry" />
        </mxCell>
        <mxCell id="ojFGZFhcRH1uIr3pjVfo-43" value="打开文件表项 &lt;font face=&quot;Comic Sans MS&quot;&gt;m&lt;/font&gt;" style="rounded=0;whiteSpace=wrap;html=1;fillColor=#fff2cc;strokeColor=#d6b656;" vertex="1" parent="1">
          <mxGeometry x="550" y="770" width="120" height="30" as="geometry" />
        </mxCell>
        <mxCell id="ojFGZFhcRH1uIr3pjVfo-44" value="打开文件表项 &lt;font face=&quot;Comic Sans MS&quot;&gt;n&lt;/font&gt;" style="rounded=0;whiteSpace=wrap;html=1;fillColor=#fff2cc;strokeColor=#d6b656;" vertex="1" parent="1">
          <mxGeometry x="550" y="860" width="120" height="30" as="geometry" />
        </mxCell>
        <mxCell id="ojFGZFhcRH1uIr3pjVfo-45" value="&lt;font style=&quot;font-size: 10px;&quot;&gt;&lt;b&gt;打开文件表&lt;br&gt;（文件偏移量，状态标志）&lt;/b&gt;&lt;/font&gt;" style="text;html=1;align=center;verticalAlign=middle;resizable=0;points=[];autosize=1;strokeColor=none;fillColor=none;" vertex="1" parent="1">
          <mxGeometry x="540" y="700" width="140" height="40" as="geometry" />
        </mxCell>
        <mxCell id="ojFGZFhcRH1uIr3pjVfo-46" value="" style="rounded=0;whiteSpace=wrap;html=1;fillColor=#e1d5e7;strokeColor=#9673a6;" vertex="1" parent="1">
          <mxGeometry x="330" y="885" width="120" height="90" as="geometry" />
        </mxCell>
        <mxCell id="ojFGZFhcRH1uIr3pjVfo-48" value="描述符 &lt;font face=&quot;Comic Sans MS&quot;&gt;x&lt;/font&gt;" style="rounded=0;whiteSpace=wrap;html=1;fillColor=#fff2cc;strokeColor=#d6b656;" vertex="1" parent="1">
          <mxGeometry x="330" y="895" width="120" height="30" as="geometry" />
        </mxCell>
        <mxCell id="ojFGZFhcRH1uIr3pjVfo-49" style="rounded=0;orthogonalLoop=1;jettySize=auto;html=1;entryX=0;entryY=0.75;entryDx=0;entryDy=0;exitX=1;exitY=0.5;exitDx=0;exitDy=0;" edge="1" parent="1" source="ojFGZFhcRH1uIr3pjVfo-50" target="ojFGZFhcRH1uIr3pjVfo-44">
          <mxGeometry relative="1" as="geometry" />
        </mxCell>
        <mxCell id="ojFGZFhcRH1uIr3pjVfo-50" value="描述符 &lt;font face=&quot;Comic Sans MS&quot;&gt;y&lt;/font&gt;" style="rounded=0;whiteSpace=wrap;html=1;fillColor=#fff2cc;strokeColor=#d6b656;" vertex="1" parent="1">
          <mxGeometry x="330" y="935" width="120" height="30" as="geometry" />
        </mxCell>
        <mxCell id="ojFGZFhcRH1uIr3pjVfo-51" value="&lt;font style=&quot;font-size: 10px;&quot;&gt;&lt;b&gt;子进程文件描述符&lt;br&gt;&lt;/b&gt;&lt;/font&gt;" style="text;html=1;align=center;verticalAlign=middle;resizable=0;points=[];autosize=1;strokeColor=none;fillColor=none;" vertex="1" parent="1">
          <mxGeometry x="340" y="855" width="100" height="30" as="geometry" />
        </mxCell>
        <mxCell id="ojFGZFhcRH1uIr3pjVfo-52" value="&lt;b style=&quot;border-color: var(--border-color); color: rgb(0, 0, 0); font-family: Helvetica; font-size: 10px; font-style: normal; font-variant-ligatures: normal; font-variant-caps: normal; letter-spacing: normal; orphans: 2; text-align: center; text-indent: 0px; text-transform: none; widows: 2; word-spacing: 0px; -webkit-text-stroke-width: 0px; background-color: rgb(251, 251, 251); text-decoration-thickness: initial; text-decoration-style: initial; text-decoration-color: initial;&quot;&gt;c)&amp;nbsp;&lt;br&gt;&lt;/b&gt;" style="text;whiteSpace=wrap;html=1;" vertex="1" parent="1">
          <mxGeometry x="250" y="840" width="20" height="30" as="geometry" />
        </mxCell>
      </root>
    </mxGraphModel>
  </diagram>
</mxfile>
